<?xml version="1.0" encoding="utf-8"?>
<!-- Svg Vector Icons : http://www.onlinewebfonts.com/icon -->
<!DOCTYPE svg PUBLIC "-//W3C//DTD SVG 1.1//EN" "http://www.w3.org/Graphics/SVG/1.1/DTD/svg11.dtd">
<svg version="1.1" xmlns="http://www.w3.org/2000/svg" xmlns:xlink="http://www.w3.org/1999/xlink" x="0px" y="0px" viewBox="0 0 1000 1000" enable-background="new 0 0 1000 1000" xml:space="preserve">
<metadata> Svg Vector Icons : http://www.onlinewebfonts.com/icon </metadata>
<g><path d="M990,249.3c0-15-12.5-27.6-27.6-27.6c-4,0-8,0-12,0c0,0-0.1,0-0.1,0c-33.7,0-67.5,0-101.2,0c-83.7,0-167.4,0-251.1,0c-85.1,0-170.3,0-255.4,0c-35.6,0-71.2,0-106.8,0c-9.5-32.7-18.9-65.3-28.4-98c-2.2-7.5-4.3-15-6.5-22.4c-3.4-11.8-14.2-20.3-26.6-20.3c-45.6,0-91.1,0-136.7,0c-15,0-27.6,12.5-27.6,27.6c0,15,12.5,27.6,27.6,27.6c38.7,0,77.3,0,116,0c10.2,35,20.3,70.1,30.5,105.1c16.6,57.3,33.2,114.5,49.8,171.8c0.3,3.9,1.4,7.5,3.1,10.8c6.9,23.6,13.7,47.3,20.6,70.9c19.1,66,38.3,131.9,57.4,197.9c2.2,7.5,4.3,15,6.5,22.4c3.4,11.8,14.2,20.3,26.6,20.3c49.6,0,99.2,0,148.8,0c87.6,0,175.3,0,262.9,0c35.9,0,71.9,0,107.8,0c15,0,27.6-12.5,27.6-27.6c0-15-12.5-27.6-27.6-27.6c-49.6,0-99.2,0-148.8,0c-87.6,0-175.3,0-262.9,0c-29,0-58.1,0-87.1,0c-7.5-25.8-15-51.6-22.5-77.5c36.2,0,72.3,0,108.5,0c88.4,0,176.8,0,265.1,0c40.7,0,81.4,0,122.1,0c0,0,0.1,0,0.1,0c3.4,0,6.9,0,10.3,0c15,0,27.6-12.5,27.6-27.6c0-5.6-1.7-10.9-4.7-15.2c17.7-52.2,35.3-104.4,53-156.7c14.4-42.7,28.9-85.4,43.3-128.1C982.2,271.4,990,261.1,990,249.3z M912.9,276.9c-12,35.5-24,71.1-36.1,106.6c-37.8,0-75.5,0-113.3,0c-0.4,0-0.8,0-1.2,0c4.5-35.5,9-71.1,13.5-106.6c19.9,0,39.8,0,59.7,0C861.3,276.9,887.1,276.9,912.9,276.9z M741.5,547.6c4.6-36.3,9.2-72.6,13.8-109c34.3,0,68.6,0,102.9,0c-12.3,36.3-24.6,72.6-36.8,109C794.7,547.6,768.1,547.6,741.5,547.6z M610.6,547.6c0-36.3,0-72.6,0-109c14.6,0,29.1,0,43.7,0c15.3,0,30.5,0,45.8,0c-0.1,0.7-0.2,1.4-0.3,2.1c-4.5,35.6-9,71.2-13.6,106.8C661.1,547.6,635.8,547.6,610.6,547.6z M479.8,547.6c-4.6-36.3-9.2-72.6-13.8-109c29.8,0,59.7,0,89.5,0c0,1.5,0,2.9,0,4.4c0,34.9,0,69.7,0,104.6C530.2,547.6,505,547.6,479.8,547.6z M298.7,438.7c30.7,0,61.4,0,92,0c6.7,0,13.4,0,20.1,0c0.1,0.7,0.2,1.4,0.3,2.1c4.5,35.6,9,71.2,13.6,106.8c-31.4,0-62.9,0-94.3,0C319.8,511.3,309.2,475,298.7,438.7z M610.6,276.9c36.7,0,73.4,0,110,0c-4.5,35.5-9,71.1-13.5,106.6c-32.2,0-64.3,0-96.5,0c0-0.7,0-1.4,0-2.1C610.6,346.6,610.6,311.7,610.6,276.9z M555.5,383.5c-18.5,0-37,0-55.5,0c-13.6,0-27.3,0-40.9,0c-4.5-35.5-9-71.1-13.5-106.6c36.7,0,73.4,0,110,0C555.5,312.4,555.5,348,555.5,383.5z M329,276.9c20.4,0,40.8,0,61.2,0c4.5,35.5,9,71.1,13.5,106.6c-38.2,0-76.4,0-114.7,0c-2.1,0-4.3,0-6.4,0c-6-20.6-12-41.2-17.9-61.8c-4.3-14.9-8.7-29.9-13-44.8C277.5,276.9,303.3,276.9,329,276.9z"/><path d="M516.1,841.7c-2.4-39.4-34.1-70.1-74-70.9c-40.9-0.8-73.3,34.5-74.1,74.1c-0.8,40.9,34.5,73.3,74.1,74.1c39.8,0.8,71.5-32.6,74-70.9c0.1-1,0.2-2.1,0.1-3.2C516.2,843.8,516.2,842.7,516.1,841.7z"/><path d="M847.1,841.7c-2.4-39.4-34.1-70.1-74-70.9c-40.9-0.8-73.3,34.5-74.1,74.1c-0.8,40.9,34.5,73.3,74.1,74.1c39.8,0.8,71.5-32.6,74-70.9c0.1-1,0.2-2.1,0.1-3.2C847.2,843.8,847.2,842.7,847.1,841.7z"/></g>
</svg>